<svg width="688" height="85" viewBox="0 0 688 85" fill="none" xmlns="http://www.w3.org/2000/svg">
<path opacity="0.2" fill-rule="evenodd" clip-rule="evenodd" d="M43.703 54.3885V36.0621H83.8163V71.645L83.4809 71.8734C76.0622 76.925 69.4546 80.3993 63.6647 82.2652L63.6618 82.2661C57.9092 84.0947 51.1032 85 43.2584 85C33.5891 85 25.6261 83.3541 19.4166 80.008L19.4149 80.0071C13.2457 76.6625 8.45518 71.6827 5.04576 65.0952L5.04418 65.0921C1.67425 58.5085 0 50.9714 0 42.5C0 33.5843 1.84132 25.798 5.55323 19.1677C9.27086 12.4905 14.719 7.4274 21.8728 3.98501L21.8757 3.98361C27.4932 1.30947 34.9871 0 44.3055 0C53.257 0 60.0354 0.806649 64.5744 2.46912C69.136 4.12648 72.9222 6.71365 75.9151 10.2322C78.9413 13.71 81.1917 18.1107 82.6853 23.4076L82.9149 24.222L57.3395 28.7825L57.1326 28.1473C56.1872 25.2438 54.593 23.0616 52.3621 21.553L52.3576 21.5499C50.1665 20.045 47.3176 19.2623 43.7544 19.2623C38.4819 19.2623 34.3314 21.0893 31.2213 24.7199C28.1634 28.2958 26.556 34.0752 26.556 42.2247C26.556 50.9009 28.1868 56.9065 31.2702 60.438C34.4049 63.9864 38.7708 65.7927 44.4708 65.7927C47.1879 65.7927 49.7726 65.4 52.2287 64.6177C54.5944 63.8642 57.3172 62.5908 60.4016 60.7817V54.3885H43.703ZM61.1694 53.6214V61.2193C57.8995 63.1646 54.997 64.541 52.4619 65.3485C49.9268 66.156 47.2631 66.5598 44.4708 66.5598C38.5923 66.5598 33.9997 64.6878 30.6931 60.944C27.4231 57.2001 25.7882 50.9604 25.7882 42.2247C25.7882 34.0029 27.4048 28.0017 30.6379 24.2212C33.9079 20.4039 38.28 18.4953 43.7544 18.4953C47.4284 18.4953 50.4412 19.3028 52.7926 20.9178C55.1807 22.5328 56.8708 24.8635 57.8628 27.91L81.9463 23.6156C81.876 23.3666 81.8042 23.1197 81.7306 22.8748C80.2643 17.9953 78.1318 13.9478 75.3329 10.7323C72.4304 7.31879 68.7564 4.80454 64.3108 3.18954C59.9019 1.57455 53.2334 0.767048 44.3055 0.767048C35.0468 0.767048 27.6803 2.07006 22.206 4.67607C15.1885 8.05288 9.86111 13.008 6.22379 19.5414C2.58647 26.0381 0.767805 33.6909 0.767805 42.5C0.767805 50.8686 2.42113 58.2829 5.72779 64.7429C9.07119 71.2029 13.7556 76.0662 19.7811 79.3329C25.8433 82.5996 33.6691 84.2329 43.2584 84.2329C51.0474 84.2329 57.7709 83.3337 63.429 81.5352C69.1238 79.7 75.6636 76.2681 83.0485 71.2396V36.8292H44.4708V53.6214H61.1694ZM169.643 82.5108V2.14346H202.489L215.165 51.254L227.785 2.14346H260.521V82.8565H240.13V21.3032L224.313 82.8565H205.851L190.089 21.3032V82.8565H143.651L139.683 69.5328H111.245L107.333 82.8565H81.8162L112.182 2.14346H139.407L169.643 82.5108ZM168.875 78.2898L139.939 1.37642H111.651L80.7074 83.6236H107.907L111.82 70.2999H139.11L143.078 83.6236H190.857V27.3966L205.255 83.6236H224.909L239.362 27.3761V83.6236H261.289V1.37642H227.19L215.163 48.1756L203.084 1.37642H168.875V78.2898ZM125.519 23.065L116.646 52.0799H134.447L125.519 23.065ZM125.521 25.6829L117.684 51.3128H133.408L125.521 25.6829ZM267.78 1.37642H336.22V20.1432H294.336V31.4374H333.189V49.4334H294.336V63.8107H337.433V83.6236H267.78V1.37642ZM293.568 64.5777V48.6663H332.421V32.2044H293.568V19.3762H335.452V2.14346H268.548V82.8565H336.665V64.5777H293.568ZM434.437 79.8918L434.436 79.8925C428.303 83.3131 420.688 85 411.631 85C402.444 85 394.77 83.539 388.646 80.5737L388.644 80.5729C382.543 77.6007 377.604 72.9015 373.825 66.5094C370.027 60.0849 368.152 52.0858 368.152 42.5551C368.152 29.2323 371.871 18.7569 379.399 11.236C386.927 3.7159 397.375 0 410.639 0C424.224 0 434.804 3.65537 442.263 11.0695C449.719 18.4439 453.401 28.7554 453.401 41.8944C453.401 51.4074 451.791 59.2858 448.518 65.486C445.288 71.6385 440.589 76.4438 434.437 79.8918ZM447.839 65.1283C451.035 59.0721 452.634 51.3274 452.634 41.8944C452.634 28.901 448.996 18.8073 441.722 11.6132C434.447 4.38244 424.086 0.767048 410.639 0.767048C397.523 0.767048 387.29 4.43749 379.942 11.7784C372.594 19.1193 368.92 29.3782 368.92 42.5551C368.92 51.9881 370.775 59.8428 374.486 66.1193C378.197 72.3958 383.029 76.9838 388.98 79.8835C394.969 82.7831 402.519 84.2329 411.631 84.2329C420.596 84.2329 428.073 82.5629 434.061 79.2228C440.087 75.846 444.679 71.1478 447.839 65.1283ZM422.464 25.445L422.458 25.4386C419.574 22.106 415.646 20.4185 410.584 20.4185C405.756 20.4185 401.935 22.1143 399.043 25.4907C396.174 28.84 394.653 34.5015 394.653 42.6652C394.653 50.7519 396.155 56.3785 398.988 59.7295C401.874 63.0992 405.783 64.8017 410.804 64.8017C415.986 64.8017 419.905 63.1271 422.672 59.8443C425.425 56.5787 426.901 50.5636 426.901 41.564C426.901 34.0424 425.368 28.7264 422.464 25.445ZM398.404 60.2282C395.392 56.6679 393.885 50.8136 393.885 42.6652C393.885 34.4434 395.41 28.5523 398.46 24.992C401.509 21.4316 405.551 19.6515 410.584 19.6515C415.838 19.6515 419.99 21.4133 423.039 24.9369C426.125 28.4238 427.668 33.9662 427.668 41.564C427.668 50.5933 426.199 56.8514 423.259 60.3384C420.32 63.8253 416.169 65.5687 410.804 65.5687C405.587 65.5687 401.454 63.7886 398.404 60.2282ZM444.228 1.37642H472.026L489.643 57.641L506.993 1.37642H600.894V20.1432H559.009V31.4374H597.863V49.4334H559.009V63.8107H602.106V83.6236H532.453V5.57869L503.464 83.6236H475.34L444.228 1.37642ZM532.911 2.14346H507.559L489.648 60.2282L471.462 2.14346H445.339L475.871 82.8565H502.93L532.911 2.14346ZM533.221 82.8565H601.338V64.5777H558.242V48.6663H597.095V32.2044H558.242V19.3762H600.126V2.14346H533.221V82.8565ZM606.503 83.6236V1.37642H648.879C656.622 1.37642 662.614 2.03737 666.807 3.39587C671.048 4.76995 674.472 7.33314 677.064 11.0635C679.668 14.7748 680.95 19.2851 680.95 24.5515C680.95 29.1403 679.97 33.1514 677.98 36.5554L677.978 36.5587C676 39.9023 673.28 42.6165 669.833 44.698C668.112 45.7355 665.925 46.6208 663.289 47.3634C665.132 48.0885 666.586 48.8279 667.629 49.5883C668.642 50.3184 670.021 51.8073 671.743 53.9672C673.508 56.1344 674.727 57.8562 675.356 59.1096C675.356 59.1112 675.357 59.1128 675.358 59.1144L688 83.6236H658.066L644.511 58.5557L644.508 58.5497C642.824 55.3683 641.389 53.4388 640.224 52.5954C638.559 51.4433 636.676 50.8649 634.551 50.8649H633.114V83.6236H606.503ZM632.346 50.0978H634.551C636.828 50.0978 638.868 50.7218 640.668 51.9697C641.991 52.9241 643.497 54.9979 645.187 58.1911L658.524 82.8565H686.741L674.671 59.4575C674.083 58.2829 672.908 56.6129 671.144 54.4473C669.417 52.2817 668.095 50.8686 667.176 50.2079C666.031 49.3727 664.311 48.5374 662.017 47.7022C661.589 47.5464 661.141 47.3906 660.673 47.2349C661.147 47.1271 661.608 47.0157 662.056 46.9007C665.117 46.1153 667.577 45.1622 669.436 44.0416C672.779 42.0228 675.406 39.3985 677.317 36.1685C679.227 32.9018 680.182 29.0295 680.182 24.5515C680.182 19.4129 678.933 15.0634 676.435 11.5031C673.937 7.90606 670.648 5.44686 666.57 4.1255C662.492 2.80414 656.595 2.14346 648.879 2.14346H607.271V82.8565H632.346V50.0978ZM649.326 32.9956L649.335 32.9938C650.802 32.7007 651.98 31.9608 652.896 30.7505L652.9 30.7453L652.904 30.7402C653.862 29.5202 654.339 28.1277 654.339 26.5336C654.339 24.1024 653.577 22.3375 652.132 21.1184C651.433 20.5293 650.374 20.0451 648.89 19.7116C647.411 19.3794 645.557 19.2073 643.313 19.2073H633.114V34.0801H642.872C643.912 34.0801 646.034 33.7346 649.317 32.9976L649.326 32.9956ZM632.346 34.8471V18.4402H643.313C647.869 18.4402 650.974 19.1376 652.627 20.5324C654.28 21.9272 655.107 23.9276 655.107 26.5336C655.107 28.2954 654.574 29.8553 653.509 31.2134C652.48 32.5714 651.139 33.4156 649.486 33.746C646.216 34.4801 644.011 34.8471 642.872 34.8471H632.346Z" fill="#CD06FF"/>
</svg>
