<svg width="280" height="35" viewBox="0 0 280 35" fill="none" xmlns="http://www.w3.org/2000/svg">
<path opacity="0.2" fill-rule="evenodd" clip-rule="evenodd" d="M17.7861 22.3953V14.8491H34.1113V29.5009L33.9748 29.5949C30.9555 31.675 28.2664 33.1056 25.91 33.8739L25.9089 33.8743C23.5677 34.6272 20.7978 35 17.6051 35C13.67 35 10.4292 34.3223 7.9021 32.9445L7.9014 32.9441C5.39069 31.5669 3.44106 29.5164 2.05351 26.8039L2.05286 26.8026C0.681382 24.0917 0 20.9882 0 17.5C0 13.8288 0.749374 10.6227 2.26004 7.8926C3.77302 5.14314 5.9903 3.05834 8.90171 1.64089L8.90289 1.64031C11.1891 0.539194 14.2389 0 18.0313 0C21.6744 0 24.433 0.33215 26.2803 1.0167C28.1367 1.69914 29.6777 2.76444 30.8957 4.21325C32.1273 5.6453 33.0432 7.45734 33.651 9.63842L33.7445 9.97377L23.3358 11.8516L23.2516 11.5901C22.8669 10.3945 22.2181 9.49595 21.3102 8.87476L21.3083 8.87348C20.4166 8.25381 19.2571 7.93155 17.807 7.93155C15.6612 7.93155 13.9721 8.68382 12.7063 10.1788C11.4619 11.6512 10.8077 14.031 10.8077 17.3866C10.8077 20.9592 11.4714 23.4321 12.7262 24.8863C14.002 26.3473 15.7788 27.0911 18.0986 27.0911C19.2044 27.0911 20.2563 26.9294 21.2558 26.6073C22.2187 26.297 23.3268 25.7727 24.5821 25.0278V22.3953H17.7861ZM24.8945 22.0794V25.2079C23.5638 26.009 22.3825 26.5757 21.3508 26.9082C20.319 27.2407 19.235 27.407 18.0986 27.407C15.7062 27.407 13.8371 26.6362 12.4914 25.0946C11.1606 23.553 10.4952 20.9837 10.4952 17.3866C10.4952 14.0012 11.1531 11.5301 12.4689 9.97343C13.7997 8.40162 15.5791 7.61571 17.807 7.61571C19.3023 7.61571 20.5284 7.94821 21.4853 8.61321C22.4573 9.2782 23.1451 10.2379 23.5488 11.4923L33.3502 9.72406C33.3216 9.62153 33.2924 9.51986 33.2625 9.41906C32.6657 7.40983 31.7978 5.74321 30.6588 4.41918C29.4775 3.01362 27.9822 1.97834 26.173 1.31334C24.3787 0.648342 21.6648 0.315843 18.0313 0.315843C14.2632 0.315843 11.2652 0.852376 9.03731 1.92544C6.18137 3.31589 4.01324 5.35623 2.53294 8.04645C1.05263 10.7216 0.312479 13.8727 0.312479 17.5C0.312479 20.9459 0.985345 23.9988 2.33108 26.6588C3.69176 29.3188 5.59822 31.3214 8.05044 32.6665C10.5176 34.0116 13.7025 34.6842 17.6051 34.6842C20.7751 34.6842 23.5114 34.3139 25.8141 33.5733C28.1318 32.8176 30.7933 31.4045 33.7988 29.3339V15.165H18.0986V22.0794H24.8945ZM69.0409 33.9751V0.882603H82.4085L87.5671 21.1046L92.7033 0.882603H106.026V34.1174H97.7274V8.7719L91.2903 34.1174H83.7766L77.362 8.7719V34.1174H58.4625L56.8476 28.6312H45.2743L43.6819 34.1174H33.2973L45.6556 0.882603H56.7355L69.0409 33.9751ZM68.7284 32.237L56.9518 0.56676H45.4392L32.846 34.4332H43.9158L45.5083 28.947H56.6146L58.2295 34.4332H77.6744V11.281L83.534 34.4332H91.5327L97.4149 11.2725V34.4332H106.339V0.56676H92.4609L87.5665 19.837L82.6506 0.56676H68.7284V32.237ZM51.0834 9.49735L47.4723 21.4446H54.7169L51.0834 9.49735ZM51.0843 10.5753L47.8945 21.1288H54.2939L51.0843 10.5753ZM108.98 0.56676H136.834V8.29428H119.788V12.9448H135.6V20.3549H119.788V26.275H137.327V34.4332H108.98V0.56676ZM119.475 26.5908V20.0391H135.288V13.2606H119.475V7.97844H136.521V0.882603H109.293V34.1174H137.015V26.5908H119.475ZM176.806 32.8966L176.805 32.8969C174.309 34.3054 171.21 35 167.524 35C163.785 35 160.662 34.3984 158.17 33.1774L158.169 33.1771C155.686 31.9533 153.676 30.0183 152.138 27.3862C150.592 24.7408 149.829 21.4471 149.829 17.5227C149.829 12.0368 151.343 7.72342 154.407 4.62659C157.47 1.53008 161.722 0 167.121 0C172.649 0 176.955 1.50515 179.991 4.55801C183.025 7.59455 184.524 11.8404 184.524 17.2506C184.524 21.1678 183.868 24.4118 182.536 26.9648C181.222 29.4982 179.31 31.4769 176.806 32.8966ZM182.26 26.8175C183.561 24.3238 184.211 21.1348 184.211 17.2506C184.211 11.9004 182.731 7.74417 179.77 4.78191C176.81 1.80453 172.593 0.315843 167.121 0.315843C161.782 0.315843 157.618 1.8272 154.628 4.84992C151.637 7.87264 150.142 12.0969 150.142 17.5227C150.142 21.4069 150.897 24.6412 152.407 27.2256C153.917 29.81 155.884 31.6992 158.306 32.8932C160.743 34.0872 163.816 34.6842 167.524 34.6842C171.173 34.6842 174.216 33.9965 176.653 32.6212C179.105 31.2307 180.974 29.2962 182.26 26.8175ZM171.933 10.4774L171.931 10.4747C170.757 9.10247 169.158 8.40763 167.098 8.40763C165.133 8.40763 163.578 9.10589 162.401 10.4962C161.234 11.8753 160.615 14.2065 160.615 17.568C160.615 20.8978 161.226 23.2147 162.379 24.5945C163.553 25.982 165.144 26.6831 167.188 26.6831C169.297 26.6831 170.892 25.9935 172.018 24.6418C173.138 23.2971 173.739 20.8203 173.739 17.1146C173.739 14.0175 173.115 11.8285 171.933 10.4774ZM162.141 24.7999C160.915 23.3338 160.302 20.9232 160.302 17.568C160.302 14.1826 160.923 11.7568 162.164 10.2908C163.405 8.8248 165.05 8.09179 167.098 8.09179C169.236 8.09179 170.926 8.81724 172.167 10.2681C173.423 11.7039 174.051 13.9861 174.051 17.1146C174.051 20.8325 173.453 23.4094 172.257 24.8452C171.061 26.281 169.371 26.9989 167.188 26.9989C165.065 26.9989 163.382 26.2659 162.141 24.7999ZM180.791 0.56676H192.104L199.273 23.7345L206.334 0.56676H244.55V8.29428H227.504V12.9448H243.316V20.3549H227.504V26.275H245.043V34.4332H216.696V2.29711L204.898 34.4332H193.452L180.791 0.56676ZM216.882 0.882603H206.565L199.275 24.7999L191.874 0.882603H181.243L193.668 34.1174H204.681L216.882 0.882603ZM217.009 34.1174H244.731V26.5908H227.191V20.0391H243.004V13.2606H227.191V7.97844H244.237V0.882603H217.009V34.1174ZM246.833 34.4332V0.56676H264.079C267.23 0.56676 269.668 0.838917 271.375 1.3983C273.101 1.9641 274.495 3.01953 275.549 4.55556C276.609 6.08376 277.131 7.94091 277.131 10.1095C277.131 11.999 276.732 13.6506 275.922 15.0522L275.921 15.0536C275.116 16.4304 274.009 17.548 272.606 18.4051C271.906 18.8323 271.016 19.1968 269.943 19.5026C270.693 19.8012 271.285 20.1056 271.709 20.4187C272.122 20.7193 272.683 21.3324 273.384 22.2218C274.102 23.1142 274.598 23.8231 274.854 24.3393C274.854 24.3399 274.855 24.3406 274.855 24.3412L280 34.4332H267.818L262.301 24.1112L262.3 24.1087C261.615 22.7987 261.03 22.0042 260.556 21.6569C259.879 21.1825 259.112 20.9444 258.247 20.9444H257.663V34.4332H246.833ZM257.35 20.6285H258.247C259.174 20.6285 260.004 20.8854 260.737 21.3993C261.275 21.7923 261.888 22.6462 262.576 23.9611L268.004 34.1174H279.487L274.576 24.4825C274.336 23.9988 273.858 23.3112 273.14 22.4195C272.437 21.5278 271.899 20.9459 271.525 20.6739C271.059 20.3299 270.359 19.986 269.425 19.6421C269.251 19.5779 269.069 19.5138 268.879 19.4497C269.071 19.4053 269.259 19.3594 269.441 19.3121C270.687 18.9886 271.688 18.5962 272.445 18.1348C273.805 17.3035 274.875 16.2229 275.652 14.8929C276.43 13.5478 276.818 11.9533 276.818 10.1095C276.818 7.99355 276.31 6.20259 275.293 4.73657C274.276 3.25544 272.938 2.24283 271.279 1.69874C269.619 1.15465 267.219 0.882603 264.079 0.882603H247.145V34.1174H257.35V20.6285ZM264.261 13.5864L264.264 13.5857C264.861 13.465 265.341 13.1603 265.714 12.662L265.715 12.6598L265.717 12.6577C266.106 12.1554 266.301 11.582 266.301 10.9256C266.301 9.92453 265.99 9.19779 265.402 8.69583C265.118 8.45322 264.687 8.25385 264.083 8.11656C263.481 7.97976 262.727 7.90888 261.814 7.90888H257.663V14.033H261.634C262.057 14.033 262.921 13.8907 264.257 13.5872L264.261 13.5864ZM257.35 14.3488V7.59304H261.814C263.668 7.59304 264.931 7.8802 265.604 8.45451C266.277 9.02883 266.613 9.85252 266.613 10.9256C266.613 11.651 266.396 12.2934 265.963 12.8526C265.544 13.4118 264.998 13.7594 264.326 13.8954C262.995 14.1977 262.098 14.3488 261.634 14.3488H257.35Z" fill="#CD06FF"/>
</svg>
