<svg width="904" height="111" viewBox="0 0 904 111" fill="none" xmlns="http://www.w3.org/2000/svg">
<path opacity="0.2" fill-rule="evenodd" clip-rule="evenodd" d="M57.4237 70.9062V47.0142H110.131V93.4036L109.69 93.7013C99.9422 100.287 91.2601 104.817 83.6524 107.249L83.6486 107.25C76.0899 109.634 67.1473 110.814 56.8395 110.814C44.1345 110.814 33.6715 108.669 25.5125 104.306L25.5102 104.305C17.4042 99.9448 11.1097 93.4528 6.62989 84.8646L6.62781 84.8606C2.19989 76.2775 0 66.4513 0 55.4072C0 43.7838 2.41941 33.6329 7.29669 24.989C12.1815 16.2838 19.3401 9.6831 28.7398 5.19526L28.7436 5.19344C36.1247 1.70716 45.9714 0 58.2153 0C69.9772 0 78.8838 1.05163 84.8477 3.21899C90.8415 5.37969 95.8164 8.75258 99.7489 13.3397C103.725 17.8737 106.682 23.6109 108.645 30.5165L108.946 31.5782L75.3414 37.5237L75.0696 36.6956C73.8274 32.9104 71.7327 30.0654 68.8014 28.0986L68.7954 28.0946C65.9164 26.1326 62.1731 25.1123 57.4912 25.1123C50.5634 25.1123 45.1098 27.4941 41.0233 32.2273C37.0055 36.8892 34.8933 44.4238 34.8933 55.0483C34.8933 66.3595 37.0361 74.189 41.0875 78.793C45.2065 83.419 50.943 85.7739 58.4326 85.7739C62.0027 85.7739 65.3989 85.262 68.626 84.2421C71.7345 83.2597 75.3121 81.5996 79.3649 79.2411V70.9062H57.4237ZM80.3738 69.9062V79.8115C76.0773 82.3477 72.2635 84.1421 68.9325 85.1948C65.6015 86.2476 62.1015 86.7739 58.4326 86.7739C50.7085 86.7739 44.674 84.3335 40.3293 79.4526C36.0327 74.5718 33.8845 66.437 33.8845 55.0483C33.8845 44.3296 36.0086 36.5059 40.2568 31.5771C44.5534 26.6006 50.2981 24.1123 57.4912 24.1123C62.3187 24.1123 66.2773 25.165 69.367 27.2705C72.5049 29.376 74.7255 32.4146 76.029 36.3862L107.674 30.7876C107.581 30.463 107.487 30.1411 107.39 29.8219C105.464 23.4605 102.662 18.1837 98.984 13.9917C95.1702 9.5415 90.3427 6.26367 84.5013 4.1582C78.7083 2.05273 69.9463 1 58.2153 1C46.0499 1 36.3707 2.69873 29.1776 6.09619C19.957 10.4985 12.957 16.9585 8.17777 25.4761C3.3985 33.9458 1.00886 43.9229 1.00886 55.4072C1.00886 66.3174 3.18126 75.9834 7.52605 84.4053C11.9191 92.8271 18.0742 99.1675 25.9914 103.426C33.9569 107.685 44.2396 109.814 56.8395 109.814C67.0739 109.814 75.9083 108.642 83.3427 106.297C90.8254 103.905 99.4185 99.4307 109.122 92.875V48.0142H58.4326V69.9062H80.3738ZM222.903 107.569V2.79443H266.062L282.717 66.8198L299.299 2.79443H342.313V108.02H315.52V27.7729L294.737 108.02H270.479L249.769 27.7729V108.02H188.75L183.537 90.6499H146.171L141.03 108.02H107.503L147.402 2.79443H183.175L222.903 107.569ZM221.894 102.066L183.873 1.79443H146.704L106.046 109.02H141.785L146.927 91.6499H182.784L187.998 109.02H250.777V35.717L269.696 109.02H295.52L314.511 35.6902V109.02H343.322V1.79443H298.517L282.715 62.8065L266.843 1.79443H221.894V102.066ZM164.926 30.0698L153.268 67.8965H176.657L164.926 30.0698ZM164.929 33.4828L154.631 66.8965H175.292L164.929 33.4828ZM351.85 1.79443H441.778V26.2607H386.744V40.9849H437.795V64.4463H386.744V83.1899H443.371V109.02H351.85V1.79443ZM385.735 84.1899V63.4463H436.786V41.9849H385.735V25.2607H440.769V2.79443H352.859V108.02H442.362V84.1899H385.735ZM570.83 104.155L570.828 104.156C562.77 108.615 552.764 110.814 540.864 110.814C528.792 110.814 518.709 108.91 510.662 105.044L510.66 105.043C502.644 101.168 496.155 95.0417 491.189 86.7083C486.198 78.3326 483.735 67.9043 483.735 55.479C483.735 38.1101 488.621 24.4533 498.513 14.6484C508.404 4.84441 522.133 0 539.561 0C557.41 0 571.312 4.7655 581.113 14.4312C590.91 24.0453 595.748 37.4883 595.748 54.6177C595.748 67.0198 593.632 77.2909 589.332 85.3741C585.088 93.395 578.914 99.6598 570.83 104.155ZM588.44 84.9077C592.64 77.0122 594.74 66.9155 594.74 54.6177C594.74 37.6782 589.96 24.519 580.402 15.1401C570.843 5.71338 557.229 1 539.561 1C522.326 1 508.882 5.78516 499.226 15.3555C489.571 24.9258 484.744 38.3003 484.744 55.479C484.744 67.7769 487.182 78.0171 492.058 86.1997C496.933 94.3823 503.282 100.364 511.102 104.144C518.971 107.924 528.892 109.814 540.864 109.814C552.643 109.814 562.467 107.637 570.336 103.283C578.253 98.8804 584.288 92.7554 588.44 84.9077ZM555.098 33.1727L555.09 33.1643C551.301 28.8196 546.14 26.6196 539.488 26.6196C533.145 26.6196 528.124 28.8304 524.324 33.2322C520.554 37.5987 518.556 44.9795 518.556 55.6226C518.556 66.1652 520.529 73.5006 524.251 77.8694C528.044 82.2624 533.18 84.4819 539.778 84.4819C546.586 84.4819 551.736 82.2987 555.372 78.019C558.989 73.7616 560.927 65.9198 560.927 54.187C560.927 44.3811 558.914 37.4506 555.098 33.1727ZM523.485 78.5195C519.526 73.8779 517.547 66.2456 517.547 55.6226C517.547 44.9038 519.55 37.2236 523.557 32.582C527.564 27.9404 532.875 25.6196 539.488 25.6196C546.392 25.6196 551.847 27.9165 555.854 32.5103C559.909 37.0562 561.936 44.2817 561.936 54.187C561.936 65.9585 560.005 74.1172 556.143 78.6631C552.281 83.209 546.826 85.4819 539.778 85.4819C532.923 85.4819 527.492 83.1611 523.485 78.5195ZM583.695 1.79443H620.22L643.368 75.1465L666.165 1.79443H789.547V26.2607H734.512V40.9849H785.564V64.4463H734.512V83.1899H791.14V109.02H699.619V7.27294L661.529 109.02H624.575L583.695 1.79443ZM700.22 2.79443H666.909L643.375 78.5195L619.479 2.79443H585.155L625.272 108.02H660.827L700.22 2.79443ZM700.628 108.02H790.131V84.1899H733.504V63.4463H784.555V41.9849H733.504V25.2607H788.538V2.79443H700.628V108.02ZM796.916 109.02V1.79443H852.597C862.771 1.79443 870.644 2.65612 876.153 4.42719C881.726 6.21858 886.225 9.56021 889.631 14.4235C893.052 19.262 894.737 25.1419 894.737 32.0078C894.737 37.9902 893.45 43.2194 890.834 47.6573L890.831 47.6616C888.232 52.0207 884.659 55.559 880.129 58.2728C877.868 59.6253 874.995 60.7795 871.531 61.7477C873.952 62.693 875.863 63.6569 877.233 64.6483C878.565 65.6 880.376 67.5411 882.639 70.3571C884.958 73.1824 886.56 75.427 887.386 77.0612C887.387 77.0633 887.388 77.0654 887.389 77.0674L904 109.02H864.668L846.858 76.339L846.854 76.3312C844.641 72.1836 842.755 69.6681 841.224 68.5686C839.037 67.0666 836.562 66.3125 833.77 66.3125H831.882V109.02H796.916ZM830.873 65.3125H833.77C836.763 65.3125 839.442 66.126 841.808 67.7529C843.546 68.9971 845.525 71.7007 847.746 75.8638L865.27 108.02H902.345L886.487 77.5146C885.714 75.9834 884.169 73.8062 881.852 70.9829C879.583 68.1597 877.845 66.3174 876.639 65.4561C875.133 64.3671 872.873 63.2782 869.859 62.1893C869.297 61.9862 868.708 61.7832 868.094 61.5801C868.716 61.4396 869.322 61.2943 869.911 61.1445C873.933 60.1204 877.165 58.878 879.607 57.417C884.001 54.7852 887.452 51.3638 889.963 47.1528C892.473 42.894 893.728 37.8457 893.728 32.0078C893.728 25.3086 892.087 19.6382 888.804 14.9966C885.521 10.3071 881.201 7.10107 875.842 5.37842C870.483 3.65576 862.735 2.79443 852.597 2.79443H797.925V108.02H830.873V65.3125ZM853.184 43.0164L853.196 43.014C855.124 42.6319 856.671 41.6673 857.876 40.0894L857.881 40.0827L857.886 40.076C859.144 38.4855 859.771 36.6701 859.771 34.5918C859.771 31.4223 858.769 29.1214 856.871 27.5321C855.953 26.764 854.562 26.1327 852.611 25.6981C850.668 25.2649 848.231 25.0405 845.284 25.0405H831.882V44.4302H844.704C846.071 44.4302 848.859 43.9798 853.173 43.019L853.184 43.0164ZM830.873 45.4302V24.0405H845.284C851.27 24.0405 855.349 24.9497 857.521 26.7681C859.694 28.5864 860.78 31.1943 860.78 34.5918C860.78 36.8887 860.08 38.9224 858.68 40.6929C857.328 42.4634 855.566 43.564 853.394 43.9946C849.097 44.9517 846.201 45.4302 844.704 45.4302H830.873Z" fill="#CD06FF"/>
</svg>
