<svg width="50" height="50" viewBox="0 0 50 50" fill="none" xmlns="http://www.w3.org/2000/svg">
<path d="M32.501 24.9998C32.501 26.9889 31.7108 28.8965 30.3043 30.3031C28.8978 31.7096 26.9901 32.4998 25.001 32.4998C23.0119 32.4998 21.1042 31.7096 19.6977 30.3031C18.2912 28.8965 17.501 26.9889 17.501 24.9998C17.501 24.5723 17.546 24.1548 17.6235 23.7498H15.001V33.7423C15.001 34.4373 15.5635 34.9998 16.2585 34.9998H33.746C34.0791 34.9991 34.3983 34.8663 34.6336 34.6306C34.8689 34.3948 35.001 34.0753 35.001 33.7423V23.7498H32.3785C32.456 24.1548 32.501 24.5723 32.501 24.9998ZM25.001 29.9998C25.6578 29.9996 26.3081 29.8701 26.9148 29.6186C27.5215 29.3671 28.0728 28.9986 28.537 28.534C29.0013 28.0695 29.3696 27.5181 29.6208 26.9112C29.872 26.3044 30.0012 25.654 30.001 24.9973C30.0008 24.3405 29.8713 23.6902 29.6198 23.0835C29.3683 22.4767 28.9998 21.9255 28.5353 21.4612C28.0708 20.9969 27.5193 20.6287 26.9125 20.3775C26.3056 20.1263 25.6553 19.9971 24.9985 19.9973C23.6721 19.9976 22.4001 20.5248 21.4624 21.463C20.5248 22.4011 19.9982 23.6733 19.9985 24.9998C19.9988 26.3262 20.5261 27.5981 21.4642 28.5358C22.4024 29.4735 23.6746 30.0001 25.001 29.9998ZM31.001 19.7498H33.9985C34.1976 19.7498 34.3887 19.6708 34.5297 19.5302C34.6708 19.3897 34.7503 19.1989 34.751 18.9998V16.0023C34.751 15.8027 34.6717 15.6113 34.5306 15.4702C34.3895 15.329 34.1981 15.2498 33.9985 15.2498H31.001C30.8014 15.2498 30.61 15.329 30.4689 15.4702C30.3278 15.6113 30.2485 15.8027 30.2485 16.0023V18.9998C30.251 19.4123 30.5885 19.7498 31.001 19.7498ZM25.001 0.999756C18.6358 0.999756 12.5313 3.52832 8.03042 8.02919C3.52954 12.5301 1.00098 18.6346 1.00098 24.9998C1.00098 31.365 3.52954 37.4694 8.03042 41.9703C12.5313 46.4712 18.6358 48.9998 25.001 48.9998C28.1527 48.9998 31.2736 48.379 34.1854 47.1729C37.0972 45.9667 39.743 44.1989 41.9716 41.9703C44.2002 39.7417 45.968 37.096 47.1741 34.1842C48.3802 31.2723 49.001 28.1515 49.001 24.9998C49.001 21.848 48.3802 18.7272 47.1741 15.8154C45.968 12.9035 44.2002 10.2578 41.9716 8.02919C39.743 5.80059 37.0972 4.03276 34.1854 2.82665C31.2736 1.62053 28.1527 0.999756 25.001 0.999756ZM37.501 34.7223C37.501 36.2498 36.251 37.4998 34.7235 37.4998H15.2785C13.751 37.4998 12.501 36.2498 12.501 34.7223V15.2773C12.501 13.7498 13.751 12.4998 15.2785 12.4998H34.7235C36.251 12.4998 37.501 13.7498 37.501 15.2773V34.7223Z" fill="#CD06FF"/>
</svg>
