<svg width="32" height="32" viewBox="0 0 32 32" fill="none" xmlns="http://www.w3.org/2000/svg">
<path d="M16 0C10.3772 0 5.6875 4.52938 5.6875 10.3125C5.6875 12.5126 6.34862 14.4745 7.61744 16.3129L15.2108 28.1616C15.5792 28.7376 16.4216 28.7365 16.7892 28.1616L24.4155 16.2726C25.657 14.5175 26.3125 12.4567 26.3125 10.3125C26.3125 4.62619 21.6863 0 16 0ZM16 15C13.4154 15 11.3125 12.8971 11.3125 10.3125C11.3125 7.72794 13.4154 5.625 16 5.625C18.5846 5.625 20.6875 7.72794 20.6875 10.3125C20.6875 12.8971 18.5846 15 16 15Z" fill="#CD06FF"/>
<path d="M23.329 21.5435L18.6083 28.9239C17.3864 30.829 14.6068 30.8228 13.3907 28.9257L8.66238 21.5454C4.50213 22.5073 1.9375 24.2693 1.9375 26.375C1.9375 30.0289 9.183 32 16 32C22.817 32 30.0625 30.0289 30.0625 26.375C30.0625 24.2678 27.4943 22.5048 23.329 21.5435Z" fill="#CD06FF"/>
</svg>
